<svg width="1024" height="1024" viewBox="0 0 1024 1024" fill="none" xmlns="http://www.w3.org/2000/svg">
<path d="M260.278 519.259C265.545 535.538 270.373 552.697 274.762 570.735C279.59 588.774 285.515 605.713 292.538 621.552C299.56 636.95 308.338 650.149 318.872 661.149C329.845 671.708 343.671 677.867 360.349 679.627C361.227 679.627 361.885 680.287 362.324 681.607C362.763 682.927 364.08 684.907 366.274 687.547C362.763 687.987 359.252 688.427 355.741 688.866C352.668 689.306 349.596 689.526 346.524 689.526C340.379 689.526 332.698 687.107 323.481 682.267C314.264 676.987 307.022 671.708 301.755 666.428C291.221 655.869 282.662 644.43 276.079 632.111C269.495 619.792 263.789 607.033 258.961 593.834C254.572 580.195 250.622 566.336 247.111 552.257C244.038 538.178 240.527 524.099 236.577 510.02C253.694 506.06 270.153 502.101 285.954 498.141C302.194 494.181 317.556 489.342 332.04 483.622C346.524 477.463 359.91 469.763 372.2 460.524C384.928 451.285 396.12 439.406 405.776 424.887C413.238 413.448 419.163 401.128 423.552 387.929C428.38 374.73 430.794 361.092 430.794 347.013C430.794 317.975 421.797 296.636 403.801 282.997C385.806 269.359 360.788 262.539 328.748 262.539C288.368 262.539 252.158 271.558 220.118 289.597C188.077 307.636 159.329 332.934 133.872 365.491C120.705 382.21 108.854 401.128 98.3204 422.247C87.7866 442.925 82.5197 464.484 82.5197 486.922C82.5197 505.4 87.5671 522.119 97.662 537.078C98.5399 537.958 98.9788 539.278 98.9788 541.038C99.4177 542.798 99.8566 544.777 100.295 546.977C87.5671 541.698 77.9111 532.898 71.3275 520.579C65.1827 508.26 62.1104 493.741 62.1104 477.023C62.1104 447.985 70.4497 420.047 87.1282 393.209C103.807 365.931 124.874 341.733 150.331 320.615C176.227 299.496 204.756 282.777 235.918 270.458C267.081 257.699 297.146 251.32 326.114 251.32C367.372 251.32 398.973 260.119 420.919 277.718C442.864 295.317 453.837 318.855 453.837 348.333C453.837 377.37 447.253 401.568 434.086 420.927C421.358 440.285 405.337 456.564 386.025 469.763C366.713 482.522 345.646 492.641 322.822 500.121C300.438 507.6 279.59 513.98 260.278 519.259ZM334.015 284.317C319.97 315.115 306.144 346.353 292.538 378.03C278.932 409.708 264.886 441.165 250.402 472.403C235.918 503.641 220.557 534.218 204.317 564.136C188.077 593.614 170.521 621.772 151.648 648.61C139.797 665.328 125.533 679.407 108.854 690.846C92.1757 702.725 72.4247 708.665 49.6015 708.665C43.4567 708.665 37.5315 707.565 31.8256 705.365C26.1198 703.165 21.5113 698.986 18 692.826C18.8778 691.946 19.5362 691.066 19.9751 690.186C20.8529 689.306 21.5113 688.866 21.9502 688.866C32.0451 694.586 42.14 697.446 52.2349 697.446C63.2077 697.446 74.1804 694.366 85.1531 688.207C96.5648 681.607 107.099 673.468 116.755 663.788C126.849 653.669 136.067 642.67 144.406 630.791C152.745 618.472 159.768 606.593 165.474 595.154C188.736 547.197 211.34 499.461 233.285 451.945C255.23 403.988 279.59 356.692 306.363 310.055C309.436 304.336 313.166 299.276 317.556 294.877C322.384 290.477 327.212 285.857 332.04 281.018C332.478 281.458 333.137 282.558 334.015 284.317Z" fill="#BF9E82"/>
<path d="M500.001 615.942C503.732 621.002 505.926 627.161 506.584 634.421C507.462 641.68 506.804 649.379 504.609 657.519L537.528 711.305L535.552 714.275C534.236 713.175 533.029 712.185 531.931 711.305C530.834 710.645 529.847 709.655 528.969 708.335L501.647 667.418C500.549 669.398 499.452 671.598 498.355 674.018C497.477 676.217 496.38 678.197 495.063 679.957C488.918 690.516 481.128 698.986 471.691 705.365C462.474 711.745 452.928 714.714 443.052 714.275C436.249 714.934 429.885 714.275 423.96 712.295C418.254 710.315 413.206 707.455 408.817 703.715C399.161 696.676 393.017 686.887 390.383 674.348C387.75 661.589 389.835 647.29 396.638 631.451C400.368 622.652 405.196 614.732 411.122 607.693C417.266 600.653 423.521 594.164 429.885 588.224C432.299 585.584 434.713 583.055 437.127 580.635C439.761 578.215 442.394 575.795 445.027 573.375C440.419 565.016 436.578 558.086 433.506 552.587C430.653 547.087 428.349 542.468 426.593 538.728C425.057 534.988 423.85 531.908 422.972 529.489C422.314 526.849 421.875 524.319 421.656 521.899C421.217 514.86 421.985 508.04 423.96 501.441C425.935 494.841 429.995 488.462 436.14 482.302C442.065 476.583 447.88 473.173 453.586 472.073C459.292 470.753 464.998 471.193 470.704 473.393C476.409 475.813 480.579 479.662 483.213 484.942C485.846 490.002 487.492 496.051 488.15 503.091C490.345 524.649 482.444 545.327 464.449 565.126L455.232 574.035L471.691 602.413C483.542 601.753 492.978 606.263 500.001 615.942ZM438.444 618.582C438.663 618.362 438.773 618.032 438.773 617.592C438.992 617.152 438.883 616.932 438.444 616.932C438.883 616.492 439.212 615.942 439.431 615.282C439.651 614.622 439.87 614.182 440.09 613.962C443.82 611.102 447.441 608.903 450.953 607.363C454.464 605.823 457.975 604.613 461.487 603.733L448.978 579.975L429.885 598.453C423.96 604.613 418.364 611.102 413.097 617.922C408.049 624.521 403.88 632.221 400.588 641.02C395.979 657.079 395.76 670.718 399.929 681.937C404.319 692.936 412.658 701.076 424.947 706.355C430.653 708.335 436.578 709.215 442.723 708.995C448.868 708.995 454.903 707.345 460.828 704.045C466.753 700.966 472.35 696.236 477.616 689.856C483.103 683.697 487.931 675.557 492.1 665.438C492.539 664.118 493.088 662.908 493.746 661.809C494.405 660.489 494.953 659.169 495.392 657.849C491.223 651.909 487.272 645.86 483.542 639.7C479.811 633.541 475.971 627.271 472.02 620.892L464.12 607.693C461.706 608.133 459.292 608.903 456.878 610.002C454.464 610.882 451.94 611.872 449.307 612.972C447.551 614.072 445.686 615.062 443.711 615.942C441.955 616.822 440.199 617.702 438.444 618.582ZM459.182 559.516C463.571 554.457 467.412 549.287 470.704 544.008C474.215 538.508 476.739 532.568 478.275 526.189C480.03 517.83 480.908 510.13 480.908 503.091C481.128 495.831 479.043 489.892 474.654 485.272C471.581 481.532 468.18 479.112 464.449 478.013C460.718 476.693 456.11 477.023 450.624 479.003C445.357 481.202 441.187 484.502 438.115 488.902C435.042 493.301 432.628 497.921 430.873 502.761C428.678 508.48 427.8 513.87 428.239 518.929C428.897 523.989 430.105 528.609 431.86 532.788C432.957 534.768 433.835 536.528 434.494 538.068C435.371 539.388 436.359 541.148 437.456 543.348C438.773 545.327 440.419 548.187 442.394 551.927C444.589 555.447 447.551 560.506 451.282 567.106L459.182 559.516ZM491.113 615.942C486.504 610.882 481.128 607.913 474.983 607.033L498.026 646.3C500.001 634.421 497.697 624.301 491.113 615.942Z" fill="#BF9E82"/>
<path d="M804.857 607.033C820.219 567.436 835.142 530.259 849.626 495.501C864.11 460.304 879.472 424.667 895.712 388.589C905.806 364.831 918.096 342.833 932.58 322.594C947.503 301.916 966.157 283.217 988.541 266.499C982.396 265.619 976.69 264.959 971.423 264.519C966.157 264.079 960.89 263.859 955.623 263.859C940.261 263.859 925.777 266.059 912.171 270.458C890.225 277.498 868.499 286.517 846.993 297.516C825.486 308.516 805.735 321.935 787.74 337.773C769.745 353.172 754.163 370.991 740.996 391.229C728.268 411.028 719.49 433.466 714.662 458.544C712.906 465.584 712.028 471.963 712.028 477.683C712.028 481.202 712.467 484.722 713.345 488.242C714.223 491.762 715.759 495.721 717.953 500.121C720.148 504.081 723.001 509.14 726.512 515.3C730.023 521.019 734.193 528.059 739.021 536.418C730.243 535.978 722.781 533.338 716.637 528.499C710.492 523.219 705.444 517.06 701.494 510.02C697.544 502.541 694.691 494.841 692.935 486.922C691.18 478.563 690.302 471.083 690.302 464.484C690.302 450.405 692.936 436.546 698.202 422.907C703.469 408.828 710.492 395.629 719.27 383.31C728.048 370.551 737.924 358.892 748.896 348.333C759.869 337.333 771.061 327.874 782.473 319.955C794.762 311.155 808.369 302.576 823.292 294.217C838.214 285.857 853.357 278.378 868.719 271.778C884.519 265.179 900.32 259.899 916.121 255.94C932.36 251.98 947.942 250 962.865 250C977.349 250 991.394 253.52 1005 260.559C1004.12 265.399 1003.68 267.819 1003.68 267.819C978.665 288.937 958.915 312.915 944.431 339.753C929.946 366.591 916.56 394.529 904.27 423.567C891.542 453.044 879.033 482.742 866.744 512.66C854.893 542.138 842.604 572.275 829.875 603.073H872.669C872.669 606.153 872.888 608.353 873.327 609.673C864.988 610.992 856.868 612.312 848.968 613.632C841.067 614.952 833.386 616.052 825.925 616.932C818.464 628.371 811.441 639.81 804.857 651.249C798.274 662.249 791.032 672.808 783.131 682.927C760.308 711.965 734.412 734.403 705.444 750.242C676.915 766.081 643.778 774 606.031 774C588.914 774 574.649 768.72 563.238 758.161C551.826 748.042 546.12 734.623 546.12 717.904C546.12 706.905 549.632 696.346 556.654 686.227C563.677 675.667 572.674 665.988 583.647 657.189C594.62 648.39 606.47 640.91 619.199 634.751C631.927 628.151 644.217 623.531 656.067 620.892C673.623 616.932 690.741 613.632 707.419 610.992C724.537 607.913 742.313 606.373 760.747 606.373C767.77 606.373 774.792 606.593 781.815 607.033C789.276 607.033 796.957 607.033 804.857 607.033ZM797.615 618.912C791.91 618.472 786.204 618.252 780.498 618.252C775.231 617.812 769.964 617.592 764.697 617.592C746.702 617.592 727.829 618.912 708.078 621.552C688.327 623.751 669.454 628.151 651.459 634.751C633.902 640.91 617.663 649.27 602.74 659.829C588.256 670.388 576.844 683.587 568.505 699.426C564.555 706.905 562.579 714.165 562.579 721.204C562.579 733.963 567.188 743.642 576.405 750.242C585.622 757.281 597.692 760.801 612.615 760.801C636.316 760.801 657.384 756.841 675.818 748.922C694.691 741.003 711.37 730.443 725.854 717.244C740.777 704.045 753.944 688.866 765.356 671.708C777.206 654.549 787.959 636.95 797.615 618.912Z" fill="#BF9E82"/>
</svg>
